<svg xmlns="http://www.w3.org/2000/svg" width="197" height="47" viewBox="0 0 197 47">
  <g fill="none" fill-rule="evenodd">
    <path fill="#FFF" fill-rule="nonzero" d="M58.3472147,29.8407713 C58.2990818,29.9578414 58.2303216,30.0508075 58.1409319,30.1196723 C58.0515423,30.1885372 57.9380879,30.2229691 57.8005654,30.2229691 L56.707267,30.2229691 C56.3909653,30.2229691 56.2328168,30.1024574 56.2328168,29.8614306 C56.2328168,29.8132252 56.2345358,29.7736285 56.2379738,29.7426394 C56.2414119,29.7116502 56.2465689,29.6823831 56.253445,29.6548372 C56.2603212,29.6272913 56.2671972,29.6031889 56.2740733,29.5825295 L62.2253298,15.2656064 C62.2390821,15.231174 62.2562721,15.1915773 62.2769005,15.1468152 C62.2975289,15.1020531 62.325033,15.0607348 62.3594136,15.0228592 C62.3937942,14.9849835 62.4436454,14.9522732 62.5089686,14.9247273 C62.5742918,14.8971814 62.6619611,14.8834086 62.7719791,14.8834086 L63.452712,14.8834086 C63.5558539,14.8834086 63.6400852,14.8971814 63.7054084,14.9247273 C63.7707316,14.9522732 63.8205827,14.9849835 63.8549634,15.0228592 C63.889344,15.0607348 63.9168481,15.1020531 63.9374764,15.1468152 C63.9581048,15.1915773 63.9752949,15.231174 63.9890471,15.2656064 L69.888733,29.5825295 L69.9093613,29.6858262 C69.9162374,29.7202586 69.9231134,29.7529689 69.9299895,29.7839581 C69.9368657,29.8149472 69.9403037,29.8407711 69.9403037,29.8614306 C69.9403037,30.1024574 69.7821552,30.2229691 69.4658534,30.2229691 L68.372555,30.2229691 C68.2350325,30.2229691 68.1215781,30.1885372 68.0321885,30.1196723 C67.9427989,30.0508075 67.8740386,29.9578414 67.8259058,29.8407713 L66.6913508,27.0001119 L59.4508272,27.0001119 C59.2101628,27.6130087 58.9901301,28.1673622 58.7907225,28.6631888 C58.5913149,29.1590155 58.4434804,29.551539 58.3472147,29.8407713 Z M60.2759581,24.9961559 L65.8971623,24.9961559 L63.1123455,17.9306614 L60.2759581,24.9961559 Z M72.9417173,17.4864855 C73.0723637,17.8308096 73.2408262,18.2680946 73.4471099,18.7983537 C73.6533937,19.3286127 73.8768644,19.9019037 74.1175288,20.5182438 C74.3581932,21.1345839 74.607449,21.7698522 74.8653037,22.424068 C75.1231584,23.0782837 75.3706951,23.7015009 75.6079215,24.2937383 C75.8451478,24.8859757 76.0617425,25.4248348 76.257712,25.9103317 C76.4536816,26.3958286 76.6101111,26.7797442 76.7270052,27.0620899 C76.8370232,26.7797442 76.9882957,26.3958286 77.1808272,25.9103317 C77.3733587,25.4248348 77.5847964,24.8842541 77.8151466,24.2885734 C78.0454968,23.6928928 78.2878766,23.067954 78.5422932,22.4137383 C78.7967098,21.7595226 79.0425276,21.1242542 79.2797539,20.5079141 C79.5169802,19.891574 79.7370129,19.3182831 79.9398586,18.788024 C80.1427043,18.2577649 80.3094479,17.8204799 80.4400942,17.4761559 C80.4882271,17.3590857 80.5569873,17.2661196 80.646377,17.1972548 C80.7357666,17.12839 80.849221,17.0939581 80.9867435,17.0939581 L82.1316126,17.0939581 C82.4341621,17.0939581 82.5854346,17.2144697 82.5854346,17.4554965 C82.5854346,17.476156 82.5819965,17.5002583 82.5751204,17.5278042 C82.5682443,17.5553501 82.5579303,17.5863388 82.544178,17.6207713 C82.5304258,17.6552037 82.5201117,17.6930787 82.5132356,17.7343976 L80.0894136,23.7152767 L75.9637592,33.8383537 L75.9637592,33.8176943 C75.8674934,34.0724941 75.6852788,34.1998921 75.4171099,34.1998921 L74.3960105,34.1998921 C74.0659565,34.1998921 73.9009319,34.0724941 73.9009319,33.8176943 C73.9009319,33.769489 73.907808,33.7195627 73.9215602,33.6679141 C73.9353125,33.6162655 73.9421885,33.5835552 73.9421885,33.5697822 L75.6646492,29.4069251 L70.8788901,17.7447273 C70.8720139,17.7240679 70.8651379,17.6999655 70.8582618,17.6724196 C70.8445095,17.6173278 70.8376335,17.548464 70.8376335,17.4658262 C70.8376335,17.2247993 70.995782,17.1042877 71.3120838,17.1042877 L72.3950681,17.1042877 C72.5325906,17.1042877 72.6460449,17.1387196 72.7354346,17.2075844 C72.8248242,17.2764493 72.8935844,17.3694154 72.9417173,17.4864855 Z M84.3697801,30.2229691 C84.2116292,30.2229691 84.0775468,30.1661564 83.9675288,30.0525295 C83.8575108,29.9389026 83.8025026,29.8063398 83.8025026,29.6548372 L83.8025026,28.9317603 C83.8025026,28.8766684 83.8093786,28.8164126 83.8231309,28.750991 C83.8368831,28.6855695 83.8609492,28.6322 83.8953298,28.5908811 C84.1978793,28.2396706 84.5760606,27.8075504 85.0298848,27.2945075 C85.4837091,26.7814647 85.9753446,26.2288328 86.5048063,25.6365954 C87.0342679,25.044358 87.5843497,24.4297488 88.1550681,23.7927493 C88.7257864,23.1557498 89.2758682,22.5411405 89.8053298,21.9489031 C90.3347915,21.3566657 90.8264271,20.8057555 91.2802513,20.2961559 C91.7340756,19.7865562 92.1122568,19.3561576 92.4148063,19.0049471 L84.4007225,19.0049471 C84.043164,19.0049471 83.8643874,18.8052421 83.8643874,18.4058262 L83.8643874,17.6620899 C83.8643874,17.4899279 83.9108006,17.3556435 84.0036283,17.2592328 C84.096456,17.1628221 84.2288194,17.1146174 84.4007225,17.1146174 L94.3538639,17.1146174 C94.5120148,17.1146174 94.6460972,17.1473277 94.7561152,17.2127493 C94.8661332,17.2781708 94.9211414,17.3969609 94.9211414,17.5691229 L94.9211414,18.4264855 C94.9211414,18.5435557 94.9159843,18.639965 94.9056702,18.7157163 C94.895356,18.7914676 94.8781659,18.8586098 94.8540995,18.9171449 C94.830033,18.97568 94.7939339,19.030771 94.745801,19.0824196 C94.6976682,19.1340682 94.639222,19.1908808 94.5704607,19.2528592 L86.5048063,28.3636284 L94.364178,28.3636284 C94.5223289,28.3636284 94.6529733,28.4083899 94.7561152,28.4979141 C94.8592571,28.5874384 94.9108272,28.7217227 94.9108272,28.9007713 L94.9108272,29.6548372 C94.9108272,29.7925668 94.8592571,29.9216864 94.7561152,30.0421998 C94.6529733,30.1627132 94.5223289,30.2229691 94.364178,30.2229691 L84.3697801,30.2229691 Z M108.247005,28.4772548 C107.655658,29.0832651 106.968056,29.5601468 106.184178,29.9079141 C105.4003,30.2556814 104.551111,30.4295625 103.636586,30.4295625 C103.024611,30.4295625 102.431554,30.3486475 101.857398,30.1868152 C101.283241,30.0249829 100.745193,29.7942892 100.243236,29.4947273 C99.7412785,29.1951654 99.284023,28.8387953 98.8714555,28.4256064 C98.458888,28.0124175 98.1030539,27.5527518 97.8039424,27.0465954 C97.504831,26.540439 97.2744842,25.9998584 97.1128953,25.4248372 C96.9513063,24.849816 96.8705131,24.2524227 96.8705131,23.6326394 C96.8705131,23.0128561 96.9513063,22.4154628 97.1128953,21.8404416 C97.2744842,21.2654204 97.504831,20.7265613 97.8039424,20.2238482 C98.1030539,19.721135 98.458888,19.2631909 98.8714555,18.850002 C99.284023,18.4368131 99.7412785,18.0821647 100.243236,17.786046 C100.745193,17.4899273 101.281522,17.2609552 101.852241,17.0991229 C102.422959,16.9372906 103.017735,16.8563756 103.636586,16.8563756 C104.551111,16.8563756 105.4003,17.0302567 106.184178,17.378024 C106.968056,17.7257913 107.655658,18.202673 108.247005,18.8086833 L108.247005,17.5484636 C108.247005,17.2454584 108.398278,17.0939581 108.700827,17.0939581 L109.763183,17.0939581 C110.086361,17.0939581 110.247948,17.2454584 110.247948,17.5484636 L110.247948,29.7684636 C110.247948,29.9061932 110.203254,30.0163752 110.113864,30.099013 C110.024474,30.1816508 109.917896,30.2229691 109.794126,30.2229691 L108.721455,30.2229691 C108.577057,30.2229691 108.461884,30.1782076 108.375932,30.0886833 C108.28998,29.9991591 108.247005,29.8924202 108.247005,29.7684636 L108.247005,28.4772548 Z M108.350147,23.6326394 C108.350147,22.9853101 108.226378,22.3672577 107.978838,21.7784636 C107.731297,21.1896694 107.394372,20.6749126 106.968052,20.2341778 C106.541733,19.793443 106.041502,19.4422378 105.467346,19.1805515 C104.893189,18.9188652 104.282942,18.788024 103.636586,18.788024 C102.990231,18.788024 102.383422,18.9188652 101.816141,19.1805515 C101.248861,19.4422378 100.753787,19.793443 100.330906,20.2341778 C99.9080241,20.6749126 99.574537,21.1896694 99.3304346,21.7784636 C99.0863321,22.3672577 98.9642827,22.9853101 98.9642827,23.6326394 C98.9642827,24.2730821 99.0863321,24.889413 99.3304346,25.4816504 C99.574537,26.0738878 99.9080241,26.5955309 100.330906,27.0465954 C100.753787,27.49766 101.248861,27.8574732 101.816141,28.126046 C102.383422,28.3946187 102.990231,28.5289031 103.636586,28.5289031 C104.282942,28.5289031 104.893189,28.3946187 105.467346,28.126046 C106.041502,27.8574732 106.541733,27.49766 106.968052,27.0465954 C107.394372,26.5955309 107.731297,26.0738878 107.978838,25.4816504 C108.226378,24.889413 108.350147,24.2730821 108.350147,23.6326394 Z M118.33423,15.3792328 C118.237965,15.2346167 118.198427,15.1158267 118.215618,15.0228592 C118.232808,14.9298917 118.320477,14.8834086 118.478628,14.8834086 L120.149518,14.8834086 C120.211403,14.8902951 120.262974,14.8971815 120.30423,14.904068 C120.345487,14.9109544 120.383305,14.9264488 120.417686,14.9505515 C120.452066,14.9746542 120.486447,15.0142508 120.520827,15.0693427 C120.555208,15.1244345 120.599902,15.2001847 120.654911,15.2965954 L124.347372,21.7113207 L124.378314,21.7113207 L128.142974,15.2242877 C128.218611,15.0865581 128.287371,14.9987568 128.349257,14.9608811 C128.411142,14.9230055 128.493654,14.8971816 128.596796,14.8834086 L130.319257,14.8834086 C130.470531,14.8834086 130.546168,14.945386 130.546168,15.0693427 C130.546168,15.131321 130.508349,15.2208439 130.432712,15.3379141 C130.006392,16.0196758 129.583517,16.7134783 129.164073,17.4193427 C128.74463,18.125207 128.326911,18.834504 127.910906,19.5472548 C127.4949,20.2600056 127.075463,20.9693025 126.652581,21.6751669 C126.229699,22.3810312 125.801667,23.0748338 125.368471,23.7565954 L125.368471,29.7271449 C125.368471,30.057696 125.217199,30.2229691 124.914649,30.2229691 L123.811037,30.2229691 C123.522239,30.2229691 123.377843,30.057696 123.377843,29.7271449 L123.377843,23.8082438 L118.33423,15.3792328 Z M143.335696,28.4772548 C142.74435,29.0832651 142.056747,29.5601468 141.272869,29.9079141 C140.488991,30.2556814 139.639802,30.4295625 138.725277,30.4295625 C138.113302,30.4295625 137.520245,30.3486475 136.946089,30.1868152 C136.371933,30.0249829 135.833884,29.7942892 135.331927,29.4947273 C134.82997,29.1951654 134.372714,28.8387953 133.960147,28.4256064 C133.547579,28.0124175 133.191745,27.5527518 132.892634,27.0465954 C132.593522,26.540439 132.363175,25.9998584 132.201586,25.4248372 C132.039997,24.849816 131.959204,24.2524227 131.959204,23.6326394 C131.959204,23.0128561 132.039997,22.4154628 132.201586,21.8404416 C132.363175,21.2654204 132.593522,20.7265613 132.892634,20.2238482 C133.191745,19.721135 133.547579,19.2631909 133.960147,18.850002 C134.372714,18.4368131 134.82997,18.0821647 135.331927,17.786046 C135.833884,17.4899273 136.370214,17.2609552 136.940932,17.0991229 C137.51165,16.9372906 138.106426,16.8563756 138.725277,16.8563756 C139.639802,16.8563756 140.488991,17.0302567 141.272869,17.378024 C142.056747,17.7257913 142.74435,18.202673 143.335696,18.8086833 L143.335696,17.5484636 C143.335696,17.2454584 143.486969,17.0939581 143.789518,17.0939581 L144.851874,17.0939581 C145.175052,17.0939581 145.336639,17.2454584 145.336639,17.5484636 L145.336639,29.7684636 C145.336639,29.9061932 145.291945,30.0163752 145.202555,30.099013 C145.113165,30.1816508 145.006587,30.2229691 144.882817,30.2229691 L143.810147,30.2229691 C143.665748,30.2229691 143.550575,30.1782076 143.464623,30.0886833 C143.378671,29.9991591 143.335696,29.8924202 143.335696,29.7684636 L143.335696,28.4772548 Z M143.438838,23.6326394 C143.438838,22.9853101 143.315069,22.3672577 143.067529,21.7784636 C142.819988,21.1896694 142.483063,20.6749126 142.056743,20.2341778 C141.630424,19.793443 141.130193,19.4422378 140.556037,19.1805515 C139.98188,18.9188652 139.371633,18.788024 138.725277,18.788024 C138.078922,18.788024 137.472113,18.9188652 136.904832,19.1805515 C136.337552,19.4422378 135.842479,19.793443 135.419597,20.2341778 C134.996715,20.6749126 134.663228,21.1896694 134.419126,21.7784636 C134.175023,22.3672577 134.052974,22.9853101 134.052974,23.6326394 C134.052974,24.2730821 134.175023,24.889413 134.419126,25.4816504 C134.663228,26.0738878 134.996715,26.5955309 135.419597,27.0465954 C135.842479,27.49766 136.337552,27.8574732 136.904832,28.126046 C137.472113,28.3946187 138.078922,28.5289031 138.725277,28.5289031 C139.371633,28.5289031 139.98188,28.3946187 140.556037,28.126046 C141.130193,27.8574732 141.630424,27.49766 142.056743,27.0465954 C142.483063,26.5955309 142.819988,26.0738878 143.067529,25.4816504 C143.315069,24.889413 143.438838,24.2730821 143.438838,23.6326394 Z M148.111141,30.2229691 C147.95299,30.2229691 147.818908,30.1661564 147.70889,30.0525295 C147.598872,29.9389026 147.543864,29.8063398 147.543864,29.6548372 L147.543864,28.9317603 C147.543864,28.8766684 147.55074,28.8164126 147.564492,28.750991 C147.578244,28.6855695 147.60231,28.6322 147.636691,28.5908811 C147.939241,28.2396706 148.317422,27.8075504 148.771246,27.2945075 C149.22507,26.7814647 149.716706,26.2288328 150.246168,25.6365954 C150.775629,25.044358 151.325711,24.4297488 151.896429,23.7927493 C152.467148,23.1557498 153.017229,22.5411405 153.546691,21.9489031 C154.076153,21.3566657 154.567788,20.8057555 155.021613,20.2961559 C155.475437,19.7865562 155.853618,19.3561576 156.156168,19.0049471 L148.142084,19.0049471 C147.784525,19.0049471 147.605749,18.8052421 147.605749,18.4058262 L147.605749,17.6620899 C147.605749,17.4899279 147.652162,17.3556435 147.74499,17.2592328 C147.837817,17.1628221 147.970181,17.1146174 148.142084,17.1146174 L158.095225,17.1146174 C158.253376,17.1146174 158.387458,17.1473277 158.497476,17.2127493 C158.607494,17.2781708 158.662503,17.3969609 158.662503,17.5691229 L158.662503,18.4264855 C158.662503,18.5435557 158.657346,18.639965 158.647031,18.7157163 C158.636717,18.7914676 158.619527,18.8586098 158.595461,18.9171449 C158.571394,18.97568 158.535295,19.030771 158.487162,19.0824196 C158.439029,19.1340682 158.380583,19.1908808 158.311822,19.2528592 L150.246168,28.3636284 L158.105539,28.3636284 C158.26369,28.3636284 158.394335,28.4083899 158.497476,28.4979141 C158.600618,28.5874384 158.652188,28.7217227 158.652188,28.9007713 L158.652188,29.6548372 C158.652188,29.7925668 158.600618,29.9216864 158.497476,30.0421998 C158.394335,30.1627132 158.26369,30.2229691 158.105539,30.2229691 L148.111141,30.2229691 Z M163.221351,29.7684636 C163.221351,30.0714687 163.070078,30.2229691 162.767529,30.2229691 L161.705173,30.2229691 C161.381995,30.2229691 161.220408,30.0714687 161.220408,29.7684636 L161.220408,17.5587932 C161.220408,17.4210636 161.265103,17.3108816 161.354492,17.2282438 C161.443882,17.145606 161.55046,17.1042877 161.67423,17.1042877 L162.746901,17.1042877 C162.891299,17.1042877 163.006473,17.1490492 163.092424,17.2385734 C163.178376,17.3280977 163.221351,17.4348366 163.221351,17.5587932 L163.221351,29.7684636 Z M168.543445,29.7684636 C168.543445,30.0714687 168.392173,30.2229691 168.089623,30.2229691 L167.027267,30.2229691 C166.704089,30.2229691 166.542503,30.0714687 166.542503,29.7684636 L166.542503,13.6645075 C166.542503,13.5267779 166.587197,13.4165958 166.676586,13.3339581 C166.765976,13.2513203 166.872554,13.210002 166.996325,13.210002 L168.068995,13.210002 C168.213393,13.210002 168.328567,13.2547635 168.414518,13.3442877 C168.50047,13.433812 168.543445,13.5405509 168.543445,13.6645075 L168.543445,29.7684636 Z M173.886168,29.7684636 C173.886168,30.0714687 173.734895,30.2229691 173.432346,30.2229691 L172.36999,30.2229691 C172.046812,30.2229691 171.885225,30.0714687 171.885225,29.7684636 L171.885225,17.5587932 C171.885225,17.4210636 171.929919,17.3108816 172.019309,17.2282438 C172.108699,17.145606 172.215277,17.1042877 172.339047,17.1042877 L173.411717,17.1042877 C173.556116,17.1042877 173.671289,17.1490492 173.757241,17.2385734 C173.843192,17.3280977 173.886168,17.4348366 173.886168,17.5587932 L173.886168,29.7684636 Z M179.239204,18.6330789 C179.431736,18.3920521 179.638016,18.1665232 179.858052,17.9564855 C180.078088,17.7464479 180.323906,17.5622372 180.595513,17.4038482 C180.86712,17.2454591 181.174822,17.1215043 181.518628,17.03198 C181.862435,16.9424558 182.261244,16.8976943 182.715068,16.8976943 C183.801496,16.8976943 184.688503,17.0991209 185.376115,17.50198 C186.063728,17.9048392 186.613809,18.4919029 187.026377,19.2631888 C187.218908,18.8293405 187.468164,18.4609193 187.774152,18.1579141 C188.080139,17.8549089 188.423941,17.6087209 188.805565,17.4193427 C189.18719,17.2299644 189.596314,17.0939585 190.032948,17.0113207 C190.469582,16.9286829 190.914804,16.8873647 191.368628,16.8873647 C192.214392,16.8873647 192.96044,17.0337002 193.606796,17.3263756 C194.253152,17.6190511 194.794638,18.018461 195.231272,18.5246174 C195.667906,19.0307738 195.997955,19.6247239 196.221429,20.3064855 C196.444903,20.9882472 196.556639,21.7182033 196.556639,22.4963756 L196.556639,29.5102218 C196.556639,29.7443622 196.496474,29.9199648 196.376141,30.037035 C196.255809,30.1541052 196.102818,30.2126394 195.917162,30.2126394 L195.153916,30.2126394 C194.8995,30.2126394 194.736194,30.1609915 194.663995,30.0576943 C194.591795,29.9543971 194.555696,29.7822377 194.555696,29.5412108 L194.555696,22.4963756 C194.555696,22.0831868 194.498969,21.6613961 194.385513,21.230991 C194.272057,20.8005859 194.086404,20.409784 193.82855,20.0585734 C193.570695,19.7073629 193.228613,19.4215782 192.802293,19.2012108 C192.375973,18.9808434 191.853396,18.8706614 191.234545,18.8706614 C190.711959,18.8706614 190.244389,18.9532979 189.831822,19.1185734 C189.419254,19.283849 189.070296,19.5231506 188.784937,19.8364855 C188.499578,20.1498204 188.281264,20.5320144 188.12999,20.9830789 C187.978715,21.4341435 187.903079,21.9420138 187.903079,22.5067053 L187.903079,29.5205515 C187.903079,29.7546918 187.842913,29.9302945 187.722581,30.0473647 C187.602249,30.1644348 187.449257,30.2229691 187.263602,30.2229691 L186.500356,30.2229691 C186.245939,30.2229691 186.082634,30.1713212 186.010435,30.068024 C185.938235,29.9647268 185.902136,29.7925673 185.902136,29.5515405 L185.902136,22.5067053 C185.902136,22.0935164 185.845409,21.6717258 185.731953,21.2413207 C185.618497,20.8109156 185.432844,20.4201137 185.17499,20.0689031 C184.917135,19.7176926 184.575053,19.4319079 184.148733,19.2115405 C183.722413,18.9911731 183.199836,18.880991 182.580984,18.880991 C182.189045,18.880991 181.793674,18.9515764 181.394859,19.0927493 C180.996043,19.2339221 180.636771,19.4422351 180.317031,19.7176943 C179.997292,19.9931536 179.737722,20.3340293 179.538314,20.7403317 C179.338907,21.1466341 179.239204,21.6114646 179.239204,22.1348372 L179.239204,29.7684636 C179.239204,30.0714687 179.087932,30.2229691 178.785382,30.2229691 L177.723026,30.2229691 C177.399848,30.2229691 177.238262,30.0714687 177.238262,29.7684636 L177.238262,17.5587932 C177.238262,17.4210636 177.282956,17.3108816 177.372346,17.2282438 C177.461735,17.145606 177.568314,17.1042877 177.692084,17.1042877 L178.764754,17.1042877 C178.909153,17.1042877 179.024326,17.1490492 179.110277,17.2385734 C179.196229,17.3280977 179.239204,17.4348366 179.239204,17.5587932 L179.239204,18.6330789 Z"/>
    <path fill="#000" fill-rule="nonzero" d="M5.41506806,0.721430591 L40.9988377,0.721430591 C43.8470077,0.721430591 46.1559058,3.03380606 46.1559058,5.88626576 L46.1559058,41.5236284 C46.1559058,44.3760881 43.8470077,46.6884636 40.9988377,46.6884636 L5.41506806,46.6884636 C2.56689802,46.6884636 0.258,44.3760881 0.258,41.5236284 L0.258,5.88626576 C0.258,3.03380606 2.56689802,0.721430591 5.41506806,0.721430591 Z"/>
    <path fill="#FFF" fill-rule="nonzero" d="M12.1450419,29.9007501 C12.096909,30.0178203 12.0281488,30.1107864 11.9387592,30.1796512 C11.8493695,30.2485161 11.7359152,30.2829479 11.5983927,30.2829479 L10.5050942,30.2829479 C10.1887925,30.2829479 10.030644,30.1624363 10.030644,29.9214095 C10.030644,29.8732041 10.032363,29.8336074 10.0358011,29.8026183 C10.0392391,29.7716291 10.0443961,29.742362 10.0512723,29.7148161 C10.0581484,29.6872702 10.0650244,29.6631678 10.0719005,29.6425084 L16.0231571,15.3255853 C16.0369093,15.2911529 16.0540994,15.2515562 16.0747277,15.2067941 C16.0953561,15.162032 16.1228602,15.1207137 16.1572408,15.0828381 C16.1916215,15.0449624 16.2414726,15.0122521 16.3067958,14.9847062 C16.372119,14.9571603 16.4597883,14.9433875 16.5698063,14.9433875 L17.2505393,14.9433875 C17.3536811,14.9433875 17.4379124,14.9571603 17.5032356,14.9847062 C17.5685588,15.0122521 17.61841,15.0449624 17.6527906,15.0828381 C17.6871712,15.1207137 17.7146753,15.162032 17.7353037,15.2067941 C17.755932,15.2515562 17.7731221,15.2911529 17.7868743,15.3255853 L23.6865602,29.6425084 L23.7071885,29.7458051 C23.7140646,29.7802375 23.7209406,29.8129478 23.7278168,29.843937 C23.7346929,29.8749261 23.7381309,29.90075 23.7381309,29.9214095 C23.7381309,30.1624363 23.5799824,30.2829479 23.2636806,30.2829479 L22.1703822,30.2829479 C22.0328597,30.2829479 21.9194053,30.2485161 21.8300157,30.1796512 C21.7406261,30.1107864 21.6718659,30.0178203 21.623733,29.9007501 L20.489178,27.0600908 L13.2486545,27.0600908 C13.0079901,27.6729876 12.7879574,28.2273411 12.5885497,28.7231677 C12.3891421,29.2189944 12.2413076,29.6115179 12.1450419,29.9007501 Z M14.0737853,25.0561348 L19.6949895,25.0561348 L16.9101728,17.9906403 L14.0737853,25.0561348 Z M26.7395445,17.5464644 C26.8701909,17.8907885 27.0386534,18.3280735 27.2449372,18.8583326 C27.4512209,19.3885916 27.6746916,19.9618826 27.915356,20.5782227 C28.1560204,21.1945628 28.4052762,21.8298311 28.6631309,22.4840468 C28.9209856,23.1382626 29.1685224,23.7614798 29.4057487,24.3537172 C29.642975,24.9459546 29.8595697,25.4848137 30.0555393,25.9703106 C30.2515088,26.4558075 30.4079383,26.8397231 30.5248325,27.1220688 C30.6348505,26.8397231 30.7861229,26.4558075 30.9786545,25.9703106 C31.171186,25.4848137 31.3826236,24.944233 31.6129738,24.3485523 C31.843324,23.7528717 32.0857038,23.1279329 32.3401204,22.4737172 C32.594537,21.8195015 32.8403548,21.1842331 33.0775812,20.567893 C33.3148075,19.9515529 33.5348402,19.378262 33.7376859,18.8480029 C33.9405316,18.3177438 34.1072751,17.8804588 34.2379215,17.5361348 C34.2860543,17.4190646 34.3548146,17.3260985 34.4442042,17.2572337 C34.5335938,17.1883688 34.6470482,17.153937 34.7845707,17.153937 L35.9294398,17.153937 C36.2319893,17.153937 36.3832618,17.2744486 36.3832618,17.5154754 C36.3832618,17.5361349 36.3798238,17.5602372 36.3729476,17.5877831 C36.3660715,17.615329 36.3557575,17.6463177 36.3420052,17.6807501 C36.328253,17.7151826 36.317939,17.7530576 36.3110628,17.7943765 L33.8872408,23.7752556 L29.7615864,33.8983326 L29.7615864,33.8776732 C29.6653206,34.132473 29.4831061,34.259871 29.2149372,34.259871 L28.1938377,34.259871 C27.8637837,34.259871 27.6987592,34.132473 27.6987592,33.8776732 C27.6987592,33.8294679 27.7056352,33.7795416 27.7193874,33.727893 C27.7331397,33.6762444 27.7400157,33.6435341 27.7400157,33.6297611 L29.4624764,29.466904 L24.6767173,17.8047062 C24.6698412,17.7840467 24.6629651,17.7599444 24.656089,17.7323985 C24.6423368,17.6773066 24.6354607,17.6084429 24.6354607,17.5258051 C24.6354607,17.2847782 24.7936092,17.1642666 25.109911,17.1642666 L26.1928953,17.1642666 C26.3304178,17.1642666 26.4438722,17.1986985 26.5332618,17.2675633 C26.6226514,17.3364281 26.6914116,17.4293942 26.7395445,17.5464644 Z"/>
  </g>
</svg>
